# xmcd CD database file generated by Grip 3.2.0
# 
# Track frame offsets:
#       150
#       16435
#       36271
#       54278
#       73631
#       84885
#       110414
#       135368
#       160425
#       172097
#       190327
#       202789
#       219877
# 
# Disc length: 3223 seconds
# 
# Revision: 1
# Processed by: cddbd v1.5.2PL0 Copyright (c) Steve Scherf et al.
# Submitted via: Grip 3.2.0
# 
DISCID=a80c950d
DTITLE=Variés - Montréal Jazz Club
DYEAR=2004
DGENRE=Jazz
TTITLE0=ResteavecMoi (Bonheur d'occasion)
TTITLE1=Je reviendra à Montréal (Version Instrumentale)
TTITLE2=The Rules of the Road
TTITLE3=Pas Question d'aventure
TTITLE4=La nuit est à nous
TTITLE5=Alys en cinémascope
TTITLE6=Everything must change
TTITLE7=Gilberto
TTITLE8=Chansonde Delphine (Les demoiselles de Rochefort)
TTITLE9=J'ai quitté mon île (Version instrumentale)
TTITLE10=La valse des Lilas
TTITLE11=The FirtsTime
TTITLE12=A case ofYou (Version Instrumentale)
EXTD=YEAR: 2004
EXTT0=
EXTT1=
EXTT2=
EXTT3=
EXTT4=
EXTT5=
EXTT6=
EXTT7=
EXTT8=
EXTT9=
EXTT10=
EXTT11=
EXTT12=
PLAYORDER=
